<svg xmlns="http://www.w3.org/2000/svg" viewBox="0 0 24 24" width="48" height="48">
  <!-- Background circle -->
  <circle cx="12" cy="12" r="12" fill="white"/>
  <!-- Warning triangle -->
  <path fill="#dc2626" d="M12.865 3.00015C12.8161 2.91898 12.7493 2.84975 12.6699 2.79735C12.5905 2.74495 12.5006 2.71094 12.4073 2.69771C12.314 2.68448 12.2193 2.69234 12.1296 2.72078C12.04 2.74923 11.9574 2.79759 11.8875 2.86215L3.17747 14.362C3.10808 14.4513 3.06122 14.5576 3.04103 14.6704C3.02085 14.7832 3.02797 14.8994 3.06178 15.0088C3.0956 15.1182 3.15509 15.2175 3.23496 15.2979C3.31483 15.3782 3.41254 15.4371 3.51997 15.47H20.4801C20.6423 15.4629 20.795 15.3934 20.9077 15.2752C21.0205 15.1571 21.0853 14.9991 21.0904 14.833C21.0918 14.7343 21.0705 14.6367 21.0282 14.5471C20.9859 14.4576 20.9235 14.3783 20.8453 14.315L12.865 3.00015Z"/>
  <!-- Exclamation mark -->
  <path fill="white" d="M12 8V12" stroke="white" stroke-width="2" stroke-linecap="round"/>
  <circle cx="12" cy="14" r="1" fill="white"/>
</svg>
